<?xml version="1.0" encoding="UTF-8" standalone="no"?>
<!-- Created with Inkscape (http://www.inkscape.org/) -->
<svg id="svg2" xmlns:rdf="http://www.w3.org/1999/02/22-rdf-syntax-ns#" xmlns="http://www.w3.org/2000/svg" xml:space="preserve" height="128.88" width="496.06" version="1.1" xmlns:cc="http://creativecommons.org/ns#" xmlns:dc="http://purl.org/dc/elements/1.1/"><metadata id="metadata8"><rdf:RDF><cc:Work rdf:about=""><dc:format>image/svg+xml</dc:format><dc:type rdf:resource="http://purl.org/dc/dcmitype/StillImage"/><dc:title/></cc:Work></rdf:RDF></metadata><defs id="defs6"><clipPath id="clipPath18" clipPathUnits="userSpaceOnUse"><path id="path20" d="m0 1031v-1031h3968.5v1031h-3968.5z"/></clipPath></defs><g id="g10" transform="matrix(1.25 0 0 -1.25 0 128.88)"><g id="g12" fill="#fff" transform="scale(.1)"><g id="g14" fill="#fff"><g id="g16" clip-path="url(#clipPath18)" fill="#fff"><path id="path22" d="m2668.2 543.06c-27.84-17.222-64.8-31.089-81.98-29.144-6.35 0.703-10.57 3.73-10.78 9.547-0.37 10.879 19.75 32.105 59.06 59.019 38.12 25.414 76.23 44.578 93.99 42.129 0.29-0.031 0.6-0.074 0.95-0.129 10.28-1.429 17.12-6.617 14.47-17.117-3.03-12.965-44.05-44.914-75.71-64.305zm-1601-24.83c-14.88-31.797-32.27-48.129-50.47-51.2-0.32-0.039-0.59-0.117-0.93-0.164-12.72-2.148-25.76 1.524-28.452 14.606-2.187 10.554 5.168 21.129 11.547 27.265 9.565 9.223 14.015 15.883 12.575 23.227-0.17 0.816-1.88 4.758-2.02 5.566 9.94 7.559 33.28 25.653 44.85 35.875 11.49 10.274 32.89 30.391 40.09 38.93 0.35-0.211 0.7-0.434 1.07-0.621-8.25-13.875-14.92-63.598-28.26-93.484zm-482.91-58.79c-0.324 14.598-3.813 33.579-10.094 51.871-5.804 16.668-14.453 32.665-25.261 45.559 11.632 16.574 29.562 40.559 46.39 62.371 30.152 36.938 68.856 80.379 110.16 110.96 30.77 22.469 76.934 46.821 116.23 54.153 0.059-0.266 0.109-0.532 0.168-0.813-50.98-24.74-111.66-74-159.05-156.84-25.96-43.21-59.33-117.71-78.55-167.26zm-9.465-22.148c-2.058-6.531-9-26.328-12.91-39.375-20.145-2.402-49.328-1.992-66.055-0.254-20.004 2.606-47.605 9.238-59.031 15.742 14.496 17.805 33.477 40.996 52.371 65.703 15.824 21.399 34.332 44.946 52.223 68.219 9-9.855 17.422-25.055 23.762-43.316 7.707-23.16 12.757-53.875 9.64-66.719zm-202.62 51.93c-10.766 38.015 3.949 81.25 54.77 94.332 0.324 0.039 0.644 0.121 0.996 0.23 39.98 10.25 78.586-4.457 106.33-29.574-17.188-22.234-34.809-45.606-53.047-69.32-19.875-24.981-38.617-49.051-53.395-66.055-21.304 11.687-46.332 36.289-55.652 70.387zm-232.64-144.26c0-0.023 32.55 2.527 16.922-22.922-15.731-25.527-43.25 17.684-16.922 22.922zm1348.3 284.52c21.92 25.046 38.07 34.57 47.31 35.183 8.34 0.629 12.45-4.074 11.14-11.605-1.02-10.879-14.25-31.754-36.73-49.317-21.66-16.656-44.56-26.929-60.78-30.855 8.4 17.398 22.22 36.879 39.06 56.594zm493.48 18.531c24.07 23.047 41.83 30.238 51.07 30.152 8.36-0.18 11.91-6.015 9.95-12.629-2.03-10.754-9.73-26.301-35.55-41.75-23.06-13.832-50.37-17.058-63.17-17.074 6.41 8.301 18.27 23.231 37.7 41.301zm1754-306.16c-1.93 3.261-8.25 0.801-14.23-0.832-15.84-4.832-46.46-14.746-78.24-20.985-18.04-3.332-34.15-4.699-45.65-4.773 13.64 3.008 27.26 11.277 38.72 21.922 18.92 19.004 24.72 41.98 22.02 65.73-1.77 9.336-0.46 18.645 9.59 22.668 7.56 3.028 17.09 2.774 27.57 4.934 25.72 5.34 30.41 14.527 8.1 21.304-8.74 2.637-21.55 2.993-32.58-0.75-10.11-4.042-18.78-10.273-21.86-12.839-20.73-7.075-45.72-14.692-71.18-21.399-18.63-5.187-35.91-9.894-50.41-12.82-5.51-1.059-9.17-2.668-8.14-5.625 1.04-2.863 6.58-1.789 10.93-1.262 9.87 1.602 33.63 7.11 51.02 11.746 16.09 4.094 43.26 11.977 53.58 16.809 0.23-0.332 0.45-0.703 0.65-1.027-14.89-8.797-46.13-50.586-75.39-71.122-29.87-22.097-55.67-28.761-75.03-23.332-12.97 3.614-22.99 12.461-18.64 25.239 3.61 10.359 14.74 16.035 25.07 19.254 13.43 3.273 20.08 7.531 23.8 15.277 3.09 8.711-2.36 19.871-20.28 24.762-17.94 5.664-42.88-0.809-55.93-19.727-4.15-1.465-8.22-3.094-12.41-4.422-19.32-6.203-36.99-11.125-49.62-13.008-11.51-1.394-22.14-0.437-25.99 3.157-5.25 5.64 1.72 15.117 8.9 21.953 22.82 21.922 71.33 56.121 96.56 70.301 22.17-5.008 36.42-8.879 57.38-14.661 6.7-1.785 15.96-5.23 18.28-1.531 3.26 3.477-6.05 6.903-11.78 8.535-14.99 4.961-32.2 9.618-53.44 14.383 25.74 15.738 47.55 28.133 76.94 43.567 29.36 15.418 61.07 30.125 76.83 35.242-1.88 4.039-9.65 9.703-24.4 13.781-24.62 6.871-49.7 2.426-85.49-14.02-34.61-15.906-75.39-36.433-115.06-59.214-5.75 1.418-16.18 4.109-28.8 6.339-13.58 2.508-24.24 4.247-26.35 0.473-2.1-3.82 2.57-4.93 10.45-5.98 11.37-2.832 23.96-5.094 33.47-7.516-22.5-9.871-58.18-24.313-88.99-37.633-1.46-0.711-2.75-1.414-4-2.097-10.61-4.649-24-10.333-38.78-15.235-14.11-4.433-27.51-6.496-38.83-4.765-3.7 0.839-10.17 2.285-12.51 4.519 36.7 15.734 65.79 37.246 72.11 56.359 3.62 12.895-1.23 24.352-9.24 32.204-6.23 6.585-16.01 11.367-19.3 10.429-3.3-1.011-0.1-4.277-0.17-11.972-0.85-3.223-1.66-9.914-3.73-13.711-9.77-2.903-23.71-6.575-37.43-17.227-16.22-12.617-22.14-24.187-24.53-33.082-36.79-20.078-82.3-36.035-103.28-31.758-9.16 1.864-11.44 8.301-9.19 13.77 4.33 17.871 40.21 46.344 70.93 62.855 30.5 15.731 54.95 25.739 78.98 29.805 8.4 1.527 14.3 1.035 14.72 2.707 1.08 4.008-8.17 6.98-20.49 9.656-34.17 7.582-81.45 1.403-111.68-6.113-17.65-4.047-33.52-9.391-44.17-13.262-12.85-5.058-25.68-10.226-35.64-15.965-1.17-0.839-2.34-1.632-3.38-2.386-11.54-5.676-21.88-10.727-38.75-18.414-18.13-8.512-34.68-14.821-45.59-17.145-10.04-2.441-17.63-2.793-20.85 0.293-3.11 3.098-1.05 8.633 6.43 17.465 7.35 8.019 20.28 20.074 39.64 34.348 21.73 16.402 38.59 27.683 63.61 44.101 13.41 7.582 9.41 11.828-22.58 17.777-28.23 5.172-52.31 1.836-79.48-8.652-29.98-10.012-64.98-28.734-75.52-34.609-1.05-0.66-1.78-1.184-2.68-1.77-11.18-6.14-24.81-13.355-41.27-21.613-16.56-8.414-33.78-15.93-43.43-17.875-8.78-2.063-18.26-3.195-22.28 0.687-3.24 2.996-2.15 9.59 3.58 16.289 8.23 10.61 57.7 53.79 94.54 82.415 65.66 51.042 104.72 79.679 142.24 105.12 41.98 27.984 99.86 64.441 130.85 80.394-0.16 4.262-10.55 8.793-22.36 11.02-25.59 4.863-42.59 1.207-58.33-6.895-51.5-26.117-89.97-51.547-129.38-79.531-56.19-39.543-105.94-78.305-142.72-112.44-0.29 0.325-0.57 0.629-0.81 0.946 6.75 12.429 1.64 28.328-24.43 32.769-31.57 6.004-67.54 0.586-94.06-7.078-25.4-6.113-44.14-13.121-62.08-21.98-10.89-4.657-27.8-13.668-35.01-19.575-2.27-1.406-4.12-2.687-5.73-3.894-10.74-6.695-20.31-12.637-36.05-21.824-16.79-10.028-32.31-17.739-42.66-20.93-9.49-3.281-16.91-4.32-20.29-1.516-3.4 2.789-1.93 8.508 4.49 17.918 6.36 8.563 17.77 21.684 35.2 37.551 19.49 18.156 34.82 30.844 57.56 49.348 12.26 8.664 7.99 12.519-23.64 15.687-27.94 2.746-51.06-2.648-76.45-15.402-28.27-12.551-60.62-34.211-70.34-40.969-1.25-0.969-2.16-1.73-3.16-2.558-8.93-6.172-20.08-13.657-32.64-20.657-12.38-6.66-24.56-10.847-35.52-10.988-3.62 0.207-9.99 0.574-12.59 2.367 31.45 21.406 54.63 47.215 57.1 66.981 0.94 13.234-5.72 23.648-14.59 30.047-7.04 5.421-17.12 8.546-19.98 7.101-2.9-1.512 0.67-4.203 1.97-11.785-0.19-3.312 0.28-9.973-0.95-14.047-8.62-4.445-21.04-10.316-31.95-22.992-12.94-15.07-16.36-27.309-16.9-36.395-30.87-25.664-70.86-48.769-91.55-47.98-9.01 0.32-12.37 6.25-11.24 11.984 0.68 18.223 29.33 52.008 55.28 73.203 25.87 20.399 47.02 34.165 68.9 42.086 7.61 2.914 13.24 3.364 13.33 5.043 0.29 4.11-8.94 5.5-21.02 6.184-33.5 1.906-76.93-11.887-104.13-24.164-15.99-6.828-30.09-14.664-39.47-20.188-11.24-7.152-22.47-14.273-30.88-21.504-0.24-0.269-0.47-0.5-0.72-0.761-13.03-9.684-32.01-22.699-46.43-31.41-34.9-20.094-69.15-29.836-90.81-29.836-13.52 0.015-21.68 6.601-21.73 18.168-0.02 6.617 3.54 19.91 10.81 29.05 21.86 0.868 60.13 7.313 88.62 16.821 28.46 9.547 55.48 24.558 57.96 46.918 1.26 13.195-10.46 25.164-40.18 25.668-32.44 0.578-69.65-9.852-101.92-24.797-27.7-13.293-54.98-35.891-67.53-50.989-6.4-0.082-16.49 2.274-22.02 4.668-11.99 5.598-14.05 14.641-12.38 22.95 0.79 7.484 8.8 17.636 35.41 31.191 10.1 5.133 5.39 12.52-4.83 14.875-7.42 1.543-19.49 1.348-30.57-1.305-5.54-0.968-16.59-5.285-27.49-12.183-16.43-9.531-31.78-20.731-46.11-31.918-25.09-19.879-49.71-41.621-59.27-51.168-0.64 0.504-1.27 1.066-1.92 1.598 7.78 9.46 19.92 24.042 28.62 35.988 8.73 10.285 19.27 24.699 18.8 37.117-0.42 11.637-9.08 20.469-34.13 19.457-28.81-1.109-61.06-24.277-79.61-38.562-13.12-9.618-27.56-22.555-38.55-33.258-0.28-0.227-0.49-0.332-0.79-0.582-14.7-14.188-35.42-31.391-51.84-43.305-38.05-26.859-69.74-37.09-83.35-38.258-14.44-1.258-22.32 3.785-23.61 16.207-0.59 5.778 0.45 13.344 3.58 18.633 22.36 6.234 61.57 19.457 87.19 32.969 27.32 14.512 56.51 32.945 56.85 55.375 0.03 13.273-11.9 24.211-41.65 22.148-0.33 0-0.63-0.027-0.94-0.07-32.54-2.313-65.23-14.817-98.9-33.617-15.03-8.801-35.08-22.317-44.5-29.93-6.99-5.797-13.18-11.172-19.56-17.207-0.28-0.215-0.49-0.387-0.78-0.609-12.59-12.125-25.79-26.004-39.98-38.383-14.2-12.406-27.57-23.086-37.82-29.328-9.46-5.231-19.2-8.071-24.11-6.153-6.92 3.364-4.81 14.485-1.36 23.274 10.88 28.004 39.32 76.422 55.67 98.14 21.27 3.125 35.24 4.559 55.68 6.559 6.46 0.645 15.85 0.719 16.36 4.922 1.43 4.289-7.97 4.25-13.56 3.703-14.96-0.617-31.71-2.301-52.11-5.328 16.14 23.422 30.13 42.336 49.49 66.644 19.35 24.309 40.99 48.688 52.55 58.821-3.15 3.043-12.01 5.609-26.27 4.32-23.79-2.164-43.78-14.887-68.53-42.422-23.9-26.578-51.49-59.582-77.25-94.375-5.59-0.652-15.84-1.89-27.85-4.219-12.95-2.453-23.1-4.554-23.43-8.828-0.34-4.211 4.3-3.617 11.62-1.851 11.21 1.386 23.18 3.711 32.49 4.82-15.72-16.902-41.39-42.641-63.25-65.703-0.31-0.356-0.54-0.676-0.82-1.031-11.17-11.442-27.84-28.692-47.32-44.149-13.26-10.277-25.95-18.043-35.42-22.824 8.89 8.07 16.97 21.012 21.17 35.031 6.28 24.406-1.2 47.692-13.88 66.824-5.99 7.543-9.36 16.278-2.91 23.887 3.99 4.781 12.85 9.426 20.5 15.508 18.71 15.18 17.31 25.051-4.38 22.023-8.48-1.175-18.48-5.132-25.74-13.726-6.48-7.68-10.88-15.867-12.07-20.238-13.93-14.641-33.67-33.633-51.77-49.954-13.26-11.351-31.54-26.128-44.76-36.765-4.498 3.461-13.33 4.496-22.584 2.914-18.59-3.168-36.351-19.84-37.371-42-7.246-6.422-15.39-12.981-24.449-19.68-13.082-10.027-28.305-18.847-38.566-24.226 9.488 8.621 21.828 30.461 26.015 46.472 6.063 24.801 3.914 58.285-8.433 79.707-5.61 8.274-10.192 15.914-3.973 23.848 3.875 4.863 12.676 9.867 20.176 16.273 18.238 16.77 16.531 25.739-5.371 21.84-8.563-1.527-18.543-5.871-25.567-14.773-5.48-6.926-10.234-17.106-11.426-20.719-15.882-18.183-41.046-50.957-63.011-74.062-11.762-12.559-25.473-24.727-35.047-33.5-4.055-3.422-6.25-6.407-3.785-8.473 2.464-2.047 6.726 0.539 10.781 3.957 7.344 5.746 23.984 21.922 35.762 34.473 13.57 12.91 34.285 38.129 50.101 60.558 0.391-0.215 0.742-0.433 1.133-0.656-13.695-23.738-23.535-88.375-40.121-123.21-14.02-30.063-29.328-45.156-48.547-49.152-12.812-2.723-26.23 0.379-29.633 13.269-2.804 10.559 4.332 20.606 10.258 27.832 9.449 8.86 13.402 16.524 11.566 23.817-2.437 9.73-12.824 16.121-30.589 12.324-16.997-4.297-33.7-19.559-35.239-39.672-6.504-6.574-13.418-13.012-20.918-18.891-16.062-13.035-35.648-23.574-49.25-27.597 30.594 87.281 72.86 183.74 117.2 265.64 16.125 31.274 43.832 72.996 63.492 91.879 7.648 7.36 18.797 12.813 29.574 14.789 7.852 1.457 17.008 1.426 22.484-0.996 7.493-2.004 9.075-5.047 10.879-3.91 2.793 1.344-0.234 6.699-8.047 10.356-5.648 3.199-20.492 6.48-51.961 0.609-38.382-7.137-86.593-31.867-120.17-55.883-44.089-32.027-84.796-76.75-124.84-129.79-11.649-13.867-22.235-27.551-32.438-42.043-30.727 28.692-73.906 48.434-129.76 34.051-71.648-18.434-104.3-72.223-88.441-120.22 13.262-40.945 58.847-66.679 89.789-76.601-41.258-44.356-93.406-93.477-163.11-121.19-56.546-21.851-90.082-17.683-97.214-1.172-3.735 8.672 1.398 16.594 7.527 24.836 8.887 11.707 15.98 22.911 11.785 33.133-5.226 17.973-25.848 23.985-51.25 15.02-24.504-8.758-44.969-37-31.008-68.414 0.125-0.254 0.2227-0.539 0.3204-0.793 19.406-43.118 91.515-40.539 161.25-13.719 83.984 32.242 145.69 97.535 173.25 128.47 18.265-5.536 42.894-9.442 65.675-11.344 23.454-0.793 51.137 0.144 69.164 2.879-0.867-3.672 0 0-3.585-13.875-3.59-13.891-17.34-77.004-17.34-77.004l84.66 21.152s0.293 25.332 2.855 44.043c2.274 16.629 7.012 40.938 7.012 40.938 18.184 5.175 39.305 16.922 56.238 30.125 5.953 4.484 11.493 9.394 16.797 14.414 0.082-0.418 0.039-0.797 0.145-1.207 6.136-26.078 35.07-42.621 82.468-32.641 0.293 0.09 0.618 0.117 0.911 0.188 28.304 5.957 60.617 18.378 81.027 29.089 19.527 10.598 33.562 20.032 53.27 34.7 8.269 5.8 16.625 11.519 20.664 14.769 4.359-24.644 33.757-42.113 80.916-34.164 28.16 4.734 59.73 15.613 80.42 25.457 20.64 9.871 39.39 20.203 59.95 37.336 19.66 17.031 38.27 36.25 47.07 46.625 0.04 0.039 0.05 0.07 0.09 0.113 8.56 8.739 19.31 20.375 29.29 30.375-26.14-41.687-37.83-67.625-34.78-87.308 2.05-13.203 13.82-23.282 40.95-19.832 40.63 5.199 72.84 32.172 89.56 46.527 16.59 14.379 41.46 39.461 53.96 52.344 0.12 0.172 0.2 0.293 0.31 0.453 0.45 0.465 0.98 1.012 1.3 1.367 0.37-0.25 0.69-0.488 1.03-0.715-13.08-16.273-20.36-32.859-18.6-47.746 1.62-21.543 17.28-37.277 67.56-30.937 35.14 4.023 70.81 19.472 106.17 45.277 19.87 13.867 40.57 31.852 50.92 41.598 0.21 0.179 0.33 0.32 0.53 0.5 12.74 12.222 25.63 23.632 37.78 33.254 11.46 8.945 23.9 18.687 32.9 23.308 6.3 3.59 10.83 5.516 13.74 3.133 3.82-2.375 2.18-6.535-2.15-12.594-11.31-13.765-23.36-29.281-36.07-46.566-15.39-19.078-31.11-43.262-38.24-57.801-4.61-11.91 0.08-14.129 23.45-11.902 15.27 1.683 28.68 4.039 37.3 11.988 33.41 33.152 62.58 56.703 89.23 79.148 10.7 8.692 29.58 22.473 39.59 26.903 0.52-17.399 11.02-31.223 29.44-38.274 9.22-3.933 25.74-6.976 42.12-6.726-5.32-8.379-11.42-22.512-11.24-33.324 0.41-20.715 17.81-36.868 68.09-34.989 32.38 0.965 75.53 14.004 114.03 35.664 20.13 11.27 42.44 28.133 54.65 37.762 2.09 1.594 3.82 3.027 5.24 4.332 3.96 3.117 7.3 5.402 10.6 7.656 0.3-0.336 0.61-0.59 0.9-0.867-16.96-14.426-25.59-30.773-26.03-46.484 0.3-23.301 17.82-40.184 62.76-41.778 36.8-1.343 90.21 16.75 114.94 31.879 3.45-2.707 12.42-4.89 19.69-5.328 14.54-0.097 26.77 4.977 40.09 12.313 11.72 6.554 23.39 14.129 33.17 20.703 1.58 0.902 3.35 1.949 5.44 3.152 9.79 6.742 23.44 15.672 38.15 24.434 22.47 13.133 42.01 22.246 55.4 25.191-14.81-6.937-61.98-44.523-82.44-70.457-7.13-8.578-14.49-19.652-15.39-30.406-1.1-13.234 7.09-23.734 33.21-25.891 35.15-2.832 65.79 11.801 94.13 27.364 16.64 9.414 42.3 25.796 55.45 34.906 2.91 1.668 5.65 3.336 6.33 3.812 0.29-0.32 0.56-0.656 0.83-0.965-18.42-13.867-31.43-30.882-33.89-43.949-3.72-24.629 16.02-35.008 45.02-37.375 43.26-4.84 91.07 20.059 117.82 35.778 0.23-0.325 0.49-0.645 0.73-0.942-7.49-6.59-14.66-17.383-14.31-27.433 0.93-12.676 11.52-21.579 33.28-24.52 28.99-4.012 56.31 4.641 92.22 21.867 17.35 8.629 43.33 22.41 57.96 30.969 0.18 0.082 0.31 0.141 0.49 0.223 10.61 5.89 25.41 13.554 41.18 21.004 24.19 11.125 45.02 18.503 58.93 20.242-15.77-5.625-67.53-38.903-90.86-62.973-8.15-7.922-16.75-18.32-18.73-28.945-2.43-13.098 4.79-24.356 31.08-28.77 35.44-5.945 68.15 5.93 98.63 18.965 17.36 7.656 44.2 21.191 58.87 29.246 0.18 0.09 0.3 0.141 0.49 0.235 7.85 4.433 13.17 6.746 18.59 9.113 0.24-0.332 0.5-0.668 0.73-1.035-20.1-11.313-32.02-26.004-35.5-41.438-4.22-23.015 10.21-42.637 55.81-51.875 37.37-7.547 95.64 1.145 124.14 11.778 3.04-3.211 11.84-6.915 19.19-8.59 15.03-2.59 28.6 0.281 43.85 5.332 19.6 6.5 39.97 15.222 52.66 20.797 12.01 4.992 27.49 11.906 41.62 17.57-43.1-29.063-65.54-48.66-71.23-67.891-3.82-12.922 2.88-26.543 30.43-33.371 41.22-10.164 84.36 2.793 107 9.875 5.5 1.738 11.78 3.895 18.37 6.25-7.69-23.113 7.88-50.578 54.87-63.738 28.56-8 66.58-12.895 91.3-13.195 23.73 0.031 46.93 0.996 75.61 7.214 27.76 6.477 55.88 15.442 69.83 20.832 8.55 2.625 11.74 5.137 10.49 7.364"/><path id="path24" d="m3862.8 103.85c0.18-0.121 107.34 1.793 4.44 116.39-0.68-0.129 187.9-129.76-4.44-116.39zm-3605.3-2.05c-60.9 24.85-156.07 30.36-156.07 30.36 1018.2 344.72 1750.6 317.72 1750.6 317.72-742.6-38.87-1594.5-348.08-1594.5-348.08zm3512.2 207.39c-8.57 6.328-30.7 24.809-30.7 24.825 0.05-0.016-26.99-14.497-57.08-20.832-0.04-0.04 37.32-24.254 49.62-33.532 110.5-77.83 178.2-228.18-346.5-42.32-1018.4 317.26-2080.8 310.46-3089.6-21.08l-295.4-96.55s133.48-3.262 227.9-35.855c94.41-32.599 139.99-71.654 139.99-71.654 296.33 130.13 619.07 264.86 1142.9 338.33 602.36 84.415 1151.3 87.93 1857.4-139.28 981.74-300.69 482.99 47.813 401.54 97.949"/><path id="path26" d="m1985.9 949.04c21.55 25.754 39.72 46.461 54.08 60.391 9.71 9.28 21.53 16.88 28.29 16.88 5.08 0 7.6-2.54 6.76-8.03-1.68-17.32-36.76-52.764-77.73-87.393-19.43-16.469-50.27-39.688-73.5-59.117 19.43 25.765 36.76 46.878 62.1 77.269zm70.94-105.16c10.98 11.816 18.58 16.035 22.81 16.035 3.79 0 5.47-2.519 4.63-6.316-0.84-5.5-7.6-15.637-18.59-23.656-10.57-7.61-21.54-11.829-29.14-13.075 4.65 8.422 11.82 17.715 20.29 27.012zm55.3-12.266c-0.85 0.84-2.11 0.84-4.63-1.265-7.19-6.742-17.32-14.774-25.36-20.254-18.57-12.25-33.78-16.051-40.11-16.051-6.76 0.012-10.14 2.973-10.14 9.309 0 2.957 0.86 6.757 2.54 9.277 10.55 2.105 29.14 7.18 41.39 13.082 13.08 6.336 27.02 14.789 27.89 26.184 0.42 6.757-4.65 12.675-18.17 12.675h-0.43c-14.76 0-29.98-5.078-46.01-13.078-7.19-3.8-16.92-9.718-21.57-13.097-3.16-2.383-6.06-4.707-8.99-7.168-0.41-0.332-0.63-0.414-1.14-0.848-4.22-3.801-14.36-12.672-20.69-17.75-5.92-4.641-12.68-8.844-18.59-11.801-3.36-2.113-8.02-3.379-10.12-2.113-2.54 1.691-2.12 4.652 0.84 9.711 2.52 4.219 6.76 9.297 13.09 17.312 6.76 8.438 14.79 18.157 16.05 25.754 0.42 8.016-5.48 12.668-16.46 12.684-18.58 0-39.69-14.356-52.8-24.067-14.78-11.394-28.72-23.218-37.17-30.394l-0.84 0.426c15.2 21.527 30 43.058 38.44 53.195 15.2 13.516 59.15 43.055 85.74 62.902 40.97 30.813 79.42 65.454 81.53 89.516 0.84 8.45-3.4 15.2-13.08 15.2-11.84 0-25.78-6.33-41.83-17.29-25.33-17.32-68.42-57.008-102.21-97.129-17.75-21.093-35.49-43.484-49.85-62.48-9.83-8.606-21.53-18.305-27.25-23.504-0.09-0.067-0.12-0.078-0.21-0.145-6.33-5.48-13.09-11.816-20.27-17.3-7.18-5.493-13.94-10.133-19.01-12.668-4.64-2.122-9.28-2.961-11.4-1.7-2.95 2.118-1.26 7.614 0.84 11.828 6.76 13.516 22.41 36.325 30.84 46.461 9.72 0.422 16.06 0.422 25.35 0.407 2.96 0 7.18-0.418 7.6 1.683 0.84 2.114-3.38 2.535-5.91 2.535-6.76 0.418-14.36 0.434-23.64 0.016 8.43 10.977 15.61 19.84 25.33 31.234 9.72 11.411 20.28 22.809 25.78 27.446-1.28 1.699-5.08 3.379-11.41 3.379-10.56 0-19.85-5.477-32.09-18.137-11.85-12.254-25.78-27.449-39.29-43.504-2.54 0-7.18 0-12.68-0.418-5.9-0.422-10.55-0.824-10.97-2.945-0.42-2.102 1.69-2.102 5.07-1.696 5.06 0 10.56 0.422 14.78 0.422-8.02-7.597-21.13-18.996-32.54-29.133-2.52-2.535-4.22-4.636-3.38-5.914 1.28-0.843 2.96 0 5.92 2.957 4.65 3.797 11.83 10.555 18.18 16.04-14.38-19.415-21.56-31.657-21.56-41.793 0-6.754 4.64-12.672 17.31-12.672 19.01-0.012 35.48 11.804 43.92 18.14 8.45 6.34 21.13 17.735 27.45 23.641 0.08 0.094 0.09 0.144 0.17 0.242 4.23 3.895 9.75 9.02 15.06 13.688l0.42-0.422c-4.24-5.059-9.32-11.395-14.37-18.153-7.18-10.132-13.1-20.254-17.32-28.277-2.53-5.914-0.43-7.187 10.56-6.769 4.64 0.421 13.09 0.839 16.89 3.8 17.73 14.356 28.29 23.649 46.88 38.407 11.39 9.296 22.39 16.476 30.42 20.695 5.48 2.539 10.13 4.219 12.24 2.961 2.53-0.848 2.11-3.379 0.42-5.5-4.64-5.899-10.99-13.512-16.91-20.688-8.86-10.976-14.78-17.734-15.62-25.754-0.84-7.175 2.11-15.629 18.16-15.211 14.79 0 31.24 10.559 40.54 17.297 6.31 4.731 15.66 12.754 21.94 18.453 0.34 0.239 0.49 0.278 0.87 0.559 1.26 1.262 4.64 4.223 5.92 5.496l0.42-0.437c-6.76-7.594-10.99-15.614-10.99-23.227-0.42-10.976 5.91-19.84 29.56-19 16.48 0.41 33.78 6.746 51.1 18.567 9.71 6.332 19.85 14.789 24.93 19.414 3.78 3.378 5.47 5.492 4.63 6.757"/><path id="path28" d="m2572.9 686.69-25.8 29.871-36.38-15.282 20.44 33.715-25.77 29.828 38.39-9.019 20.5 33.754 3.28-39.325 38.47-9.011-36.43-15.254 3.3-39.277"/><path id="path30" d="m3082.8 606.82-25.8 29.903-36.39-15.309 20.44 33.785-25.78 29.871 38.42-9.039 20.47 33.774 3.3-39.325 38.41-9.027-36.38-15.281 3.31-39.352"/><path id="path32" d="m1741.1 2.5586-67 46.714-65.1-49.273l23.75 78.152-67.01 46.758 81.7 1.531 23.73 78.157 26.73-77.137 81.68 1.551-65.17-49.278 26.73-77.176"/><path id="path34" d="m2119.1 2.5391-67 46.727-65.2-49.266l23.75 78.152-67 46.758 81.68 1.524 23.75 78.183 26.72-77.179 81.67 1.566-65.15-49.281 26.72-77.184"/><path id="path36" d="m2497 2.5586-67 46.738-65.14-49.277 23.73 78.152-66.99 46.75 81.67 1.543 23.77 78.152 26.71-77.156 81.68 1.551-65.16-49.25 26.73-77.203"/><path id="path38" d="m2875 2.5586-67 46.738-65.1-49.277 23.7 78.152l-67 46.75 81.67 1.543 23.75 78.152 26.73-77.156 81.69 1.551-65.1-49.248 26.7-77.203"/><path id="path40" d="m1363.2 2.5312-67.1 46.766-65.1-49.297l23.73 78.172-66.98 46.719 81.67 1.582 23.74 78.156 26.73-77.168 81.67 1.519-65.15-49.246 26.74-77.203"/></g></g></g></g></svg>
